<svg id="Camada_1" data-name="Camada 1" xmlns="http://www.w3.org/2000/svg" viewBox="0 0 490.91 494.02"><defs><style>.cls-1{font-size:55px;font-family:CenturyGothic, Century Gothic;letter-spacing:0.13em;}.cls-1,.cls-4,.cls-8{fill:#fff;}.cls-2{font-size:26.28px;letter-spacing:0.06em;}.cls-3{font-size:97.46px;font-family:CenturyGothic-Bold, Century Gothic;font-weight:700;}.cls-4,.cls-5,.cls-6{font-size:66.76px;}.cls-4{letter-spacing:0em;}.cls-5{fill:#8cad28;}.cls-6{fill:#9e9e9e;letter-spacing:0em;}.cls-7{fill:#98bf13;}</style></defs><text class="cls-1" transform="translate(155.39 373.35)">porto<tspan class="cls-2"><tspan x="14.6" y="34.53">fold n´visit</tspan></tspan></text><text class="cls-3" transform="translate(16.61 299.14)"> <tspan class="cls-4" x="27.27" y="0">top</tspan><tspan class="cls-5" x="134.09" y="0">biketours</tspan><tspan class="cls-6" x="429.15" y="0"> </tspan></text><path class="cls-7" d="M67.45,235.5a61.87,61.87,0,0,1,118.39,0h11.84a73.28,73.28,0,0,0-142.07,0Z"/><path class="cls-7" d="M309.9,194.9c1.4,3.88,2.78,7.66,4.12,11.31a62,62,0,0,0-19.31,29.29H282.87A73.33,73.33,0,0,1,309.9,194.9Z"/><path class="cls-7" d="M424.93,235.5H413.09a61.93,61.93,0,0,0-78.65-40.75q-1.85-5-3.88-10.73a73.33,73.33,0,0,1,94.37,51.48Z"/><path class="cls-8" d="M218,235.5h-7.35l-27-86.39a38.75,38.75,0,0,0,7.56.65Z"/><path class="cls-8" d="M261.52,235.5l55.88-59a3.51,3.51,0,1,0-5.09-4.82L251.85,235.5Z"/><rect class="cls-8" x="200.66" y="187.97" width="119.59" height="7.02" transform="translate(-62.48 206.23) rotate(-38.94)"/><path class="cls-8" d="M196.92,178.77l-14.27,15.72c-1.48-1.42-3-2.77-4.6-4.05l14.32-15.79a3.07,3.07,0,0,1,4.55,4.12Z"/><path class="cls-7" d="M160.86,131.8v4.11s28.08,7.9,31.59,6.15,29.83-11.41,29.83-11.41-5.26-7-8.77-7c-2.88,0-24.06,1.18-41.75-1.3A9.57,9.57,0,0,0,160.86,131.8Z"/><path class="cls-8" d="M263.4,102.12l28.05-2.55a8.11,8.11,0,0,1,8.08,11.53l-3.06,6.49a17,17,0,0,0-.7,12.83c9.33,27.12,30.15,87,38.37,105.08h7.78c-4-7-19.27-48.54-39.51-107.36a10.06,10.06,0,0,1,.41-7.56l3.06-6.49a15.13,15.13,0,0,0-15.06-21.51l-28.05,2.55a3.51,3.51,0,1,0,.63,7Z"/></svg>